<svg width="43" height="80" viewBox="0 0 43 80" fill="none" xmlns="http://www.w3.org/2000/svg">
<path d="M24.0248 10.1677L26.6775 2.87938C27.0553 1.84143 28.203 1.30626 29.241 1.68404L40.1506 5.65481C41.1885 6.03259 41.7237 7.18028 41.3459 8.21824L38.6932 15.5066L36.6911 21.0072L20.0072 66.8459L12.2053 74.2327L10.2388 76.0947C9.042 77.2278 7.06525 76.5084 6.87682 74.8711L6.56719 72.1806L5.33881 61.507L22.0227 15.6684L24.0248 10.1677Z" fill="#F7F7F7"/>
<path d="M24.0248 10.1677L38.6932 15.5066M24.0248 10.1677L26.6775 2.87938C27.0553 1.84143 28.203 1.30626 29.241 1.68404L40.1506 5.65481C41.1885 6.03259 41.7237 7.18028 41.3459 8.21824L38.6932 15.5066M24.0248 10.1677L22.0227 15.6684M38.6932 15.5066L36.6911 21.0072M20.0072 66.8459L36.6911 21.0072M20.0072 66.8459L12.673 64.1765M20.0072 66.8459L12.2053 74.2327M5.33881 61.507L22.0227 15.6684M5.33881 61.507L12.673 64.1765M5.33881 61.507L6.56719 72.1806M22.0227 15.6684L29.3569 18.3378M36.6911 21.0072L29.3569 18.3378M29.3569 18.3378L12.673 64.1765M6.56719 72.1806L6.87682 74.8711C7.06525 76.5083 9.042 77.2278 10.2388 76.0947L12.2053 74.2327M6.56719 72.1806L12.2053 74.2327" stroke="black"/>
</svg>
