<svg width="32" height="38" viewBox="0 0 32 38" fill="none" xmlns="http://www.w3.org/2000/svg">
<path d="M7.42857 1H2C1.44771 1 1 1.44772 1 2V36C1 36.5523 1.44772 37 2 37H30C30.5523 37 31 36.5523 31 36V9.43455C31 9.15737 30.885 8.89262 30.6823 8.7035L22.7167 1.26894C22.5316 1.09612 22.2877 1 22.0344 1H20.2857M7.42857 1V9C7.42857 9.55228 7.87629 10 8.42857 10H16M7.42857 1H16M20.2857 1V9C20.2857 9.55228 19.838 10 19.2857 10H16M20.2857 1H16M16 1V10M24.5714 20V30C24.5714 30.5523 24.1237 31 23.5714 31H8.42857C7.87629 31 7.42857 30.5523 7.42857 30V20C7.42857 19.4477 7.87628 19 8.42857 19H23.5714C24.1237 19 24.5714 19.4477 24.5714 20Z" stroke="black"/>
</svg>
