<svg width="29" height="32" viewBox="0 0 29 32" fill="none" xmlns="http://www.w3.org/2000/svg">
<path d="M10.6976 3.87754C11.7893 0.040821 17.2107 0.0408201 18.3024 3.87754C18.8881 5.93566 20.9963 7.15646 23.0663 6.63606C26.9251 5.66596 29.6358 10.3749 26.8687 13.2415C25.3844 14.7792 25.3844 17.2208 26.8687 18.7585C29.6358 21.6251 26.9251 26.334 23.0663 25.3639C20.9963 24.8435 18.8881 26.0643 18.3024 28.1225C17.2107 31.9592 11.7893 31.9592 10.6976 28.1225C10.1119 26.0643 8.00368 24.8435 5.93371 25.3639C2.07491 26.334 -0.635787 21.6251 2.13128 18.7585C3.61561 17.2208 3.61561 14.7792 2.13128 13.2415C-0.635788 10.3749 2.07491 5.66596 5.93371 6.63606C8.00368 7.15646 10.1119 5.93567 10.6976 3.87754Z" stroke="black"/>
<path d="M19.6508 16C19.6508 18.778 17.3447 21.03 14.5 21.03C11.6553 21.03 9.3492 18.778 9.3492 16C9.3492 13.222 11.6553 10.97 14.5 10.97C17.3447 10.97 19.6508 13.222 19.6508 16Z" stroke="black"/>
</svg>
